PathFileType	4	(X/Y/Z)	/Users/itak/Documents/Research/Walk-IL/dataset/trc/00218_00009.trc
DataRate	CameraRate	NumFrames	NumMarkers	Units	OrigDataRate	OrigDataStartFrame	OrigNumFrames
100.000000	100.000000	4	53	mm	100.000000	382	510
Frame#	Time	RPSI			LPSI			L3			STRN			T10			C7			CLAV			RBAK			LBAK			LSHO			LUPA			LAEL			LAOL			LWTS			LWPS			LFRA			LIFD			LHPS			LHTS			RSHO			RUPA			RAEL			RAOL			RWTS			RWPS			RFRA			RIFD			RHTS			RHPS			RBHD			LFHD			RFHD			LBHD			LHIP			RHIP			RASI			LASI			LKNE			LTHI			LANK			LTIP			LTOE			LMT1			LMT5			LHEE			RKNE			RANK			RTIP			RTOE			RMT1			RMT5			RHEE			RTHI			
		X1	Y1	Z1	X2	Y2	Z2	X3	Y3	Z3	X4	Y4	Z4	X5	Y5	Z5	X6	Y6	Z6	X7	Y7	Z7	X8	Y8	Z8	X9	Y9	Z9	X10	Y10	Z10	X11	Y11	Z11	X12	Y12	Z12	X13	Y13	Z13	X14	Y14	Z14	X15	Y15	Z15	X16	Y16	Z16	X17	Y17	Z17	X18	Y18	Z18	X19	Y19	Z19	X20	Y20	Z20	X21	Y21	Z21	X22	Y22	Z22	X23	Y23	Z23	X24	Y24	Z24	X25	Y25	Z25	X26	Y26	Z26	X27	Y27	Z27	X28	Y28	Z28	X29	Y29	Z29	X30	Y30	Z30	X31	Y31	Z31	X32	Y32	Z32	X33	Y33	Z33	X34	Y34	Z34	X35	Y35	Z35	X36	Y36	Z36	X37	Y37	Z37	X38	Y38	Z38	X39	Y39	Z39	X40	Y40	Z40	X41	Y41	Z41	X42	Y42	Z42	X43	Y43	Z43	X44	Y44	Z44	X45	Y45	Z45	X46	Y46	Z46	X47	Y47	Z47	X48	Y48	Z48	X49	Y49	Z49	X50	Y50	Z50	X51	Y51	Z51	X52	Y52	Z52	X53	Y53	Z53	

383	3.82	287.7070617675781	1040.383422851562	-221.4857940673828	274.4081420898438	1052.0498046875	-102.5790786743164	280.05859375	1131.270263671875	-151.0641479492188	21.08779716491699	1302.365112304688	-169.1078186035156	281.5475158691406	1258.61083984375	-160.8536071777344	200.6490020751953	1516.083984375	-165.1164703369141	41.59804153442383	1420.481689453125	-169.2438049316406	289.7116394042969	1382.142700195312	-234.1603546142578	217.3117218017578	1476.808349609375	-53.38955688476562	126.7459945678711	1473.416870117188	1.817841053009033	170.1481475830078	1360.0283203125	83.2908935546875	200.2499237060547	1154.294555664062	116.4908218383789	268.4933471679688	1149.415649414062	61.92061996459961	160.1292419433594	901.643798828125	83.275146484375	198.2176055908203	897.9026489257812	158.6508178710938	203.9477996826172	1046.281005859375	137.6201324462891	207.6416473388672	712.9567260742188	99.68511199951172	204.5230560302734	807.8477172851562	159.9842681884766	155.4145965576172	796.6353759765625	113.2967071533203	151.759033203125	1468.528198242188	-334.9389343261719	178.6385803222656	1404.444458007812	-400.6806030273438	211.74951171875	1125.373046875	-439.3886413574219	241.1752471923828	1117.234252929688	-348.8561706542969	77.96363067626953	907.0921630859375	-413.3243103027344	138.7627105712891	895.7958374023438	-473.2250061035156	189.1544342041016	1056.871215820312	-455.0636596679688	74.01423645019531	713.0830688476562	-412.1098022460938	47.80055618286133	784.5347290039062	-434.2671203613281	104.3553619384766	787.409423828125	-479.2966918945312	158.9885559082031	1666.804565429688	-223.1743774414062	-43.69729614257812	1710.54248046875	-129.4823303222656	-43.19298934936523	1707.305786132812	-229.750732421875	113.8614959716797	1676.533447265625	-90.80892181396484	158.9330139160156	996.44775390625	29.89520835876465	204.0666351318359	992.4144287109375	-336.4471435546875	102.2908782958984	1035.625	-311.8480224609375	65.46739959716797	1032.978515625	-34.52303314208984	81.9954833984375	512.4996337890625	-15.74396419525146	99.58160400390625	654.8280639648438	12.86635398864746	144.7169647216797	33.74633407592773	-17.44595718383789	115.6569213867188	283.8028869628906	-9.333198547363281	-59.62739181518555	57.81777954101562	-91.39754486083984	7.874720096588135	40.11321258544922	-127.5221939086914	17.07903861999512	44.25625228881836	-13.55187320709229	210.9646301269531	39.4639892578125	-65.24917602539062	156.6001739501953	502.3164978027344	-307.9061584472656	351.9293823242188	45.67059707641602	-276.0466003417969	173.6813049316406	380.8381958007812	-294.0547790527344	141.1806182861328	42.20307159423828	-252.6604461669922	191.1002655029297	43.9237174987793	-205.8235473632812	247.7800445556641	30.26630783081055	-312.7890319824219	408.497314453125	61.03719711303711	-212.9775848388672	146.7531127929688	770.14892578125	-346.5526733398438	
384	3.83	291.0684509277344	1040.850219726562	-223.4442901611328	277.8980712890625	1052.376220703125	-104.5055847167969	283.2555541992188	1131.4921875	-153.1000671386719	24.03754615783691	1302.289184570312	-170.8214721679688	284.6063842773438	1258.759887695312	-163.0838317871094	203.4827728271484	1516.140869140625	-167.0780029296875	44.50905227661133	1420.4501953125	-170.8958282470703	292.5064392089844	1382.300537109375	-236.4296112060547	220.4588623046875	1476.850341796875	-55.3905143737793	130.0335388183594	1473.322875976562	0.03383815288543701	173.5922241210938	1359.837768554688	81.17162322998047	203.6473693847656	1154.16357421875	114.211181640625	271.712890625	1149.2607421875	59.44356155395508	163.9499053955078	901.3405151367188	81.43244171142578	202.2091217041016	897.9012451171875	156.7644500732422	207.5223693847656	1046.217529296875	135.4485168457031	212.4691162109375	712.9060668945312	98.12022399902344	208.8776092529297	807.8818969726562	158.2545471191406	159.8054351806641	796.3110961914062	111.6085815429688	154.2688751220703	1468.638427734375	-336.7887268066406	180.9155731201172	1404.626098632812	-402.6806030273438	213.2481689453125	1125.475952148438	-441.7998657226562	243.1439208984375	1117.187622070312	-351.426025390625	78.68931579589844	907.7494506835938	-415.1288452148438	139.2159423828125	896.1764526367188	-475.3054809570312	190.3249969482422	1057.026245117188	-457.3862609863281	73.53377532958984	713.7877807617188	-414.1570434570312	47.75197982788086	785.4392700195312	-436.0833129882812	104.1413116455078	787.976806640625	-481.328125	161.5090179443359	1666.972900390625	-224.9067993164062	-41.21138000488281	1710.23876953125	-130.9663391113281	-40.8040885925293	1706.982543945312	-231.2609558105469	116.5013198852539	1676.589233398438	-92.48388671875	162.4331207275391	996.5321044921875	27.90553092956543	207.6773376464844	992.6571655273438	-338.5212707519531	105.7094268798828	1035.549926757812	-313.9348449707031	68.97071838378906	1032.92724609375	-36.58066940307617	83.42063140869141	512.9096069335938	-17.14783477783203	101.7629318237305	655.0841674804688	11.20841693878174	144.6910095214844	33.9651985168457	-17.60315322875977	116.4025421142578	284.1033630371094	-10.12373352050781	-59.50153732299805	57.9732551574707	-91.64852905273438	7.909604549407959	40.1002311706543	-127.6809539794922	17.07264518737793	44.46288299560547	-13.76046276092529	211.0167999267578	39.55497360229492	-65.24932861328125	162.7774658203125	502.4409484863281	-308.0668334960938	352.3997192382812	43.79032516479492	-274.9869384765625	178.9207458496094	380.7909851074219	-294.0755920410156	141.1425933837891	42.20145034790039	-252.5048828125	191.1980285644531	43.36337661743164	-205.5952758789062	247.9996643066406	30.22568511962891	-312.6338500976562	408.8791198730469	57.84918975830078	-211.5020599365234	151.5008697509766	769.9943237304688	-348.0152587890625	
385	3.84	294.4552307128906	1041.424194335938	-225.3831787109375	281.4222412109375	1052.761352539062	-106.4158706665039	286.4978637695312	1131.812744140625	-155.0947113037109	26.96519088745117	1302.274047851562	-172.5209808349609	287.6903381347656	1258.992431640625	-165.2533416748047	206.3098297119141	1516.2548828125	-169.0247344970703	47.43276214599609	1420.477172851562	-172.5276947021484	295.2806701660156	1382.540649414062	-238.7103576660156	223.5923309326172	1476.971801757812	-57.3830680847168	133.3089752197266	1473.317626953125	-1.739574551582336	176.976318359375	1359.731567382812	79.05782318115234	206.8701171875	1154.084716796875	111.8764343261719	274.7477722167969	1149.11279296875	56.89366149902344	167.3376312255859	901.1292114257812	79.52241516113281	205.8068542480469	897.9586181640625	154.8017425537109	210.80908203125	1046.212768554688	133.2407836914062	216.8289642333984	712.9126586914062	96.46933746337891	212.8035125732422	807.9807739257812	156.4422302246094	163.7586975097656	796.0498046875	109.8575439453125	156.7362060546875	1468.836303710938	-338.6145324707031	183.1377868652344	1404.89990234375	-404.6658325195312	214.7091217041016	1125.685302734375	-444.1844787597656	245.1073303222656	1117.254150390625	-353.9761962890625	79.41001129150391	908.49951171875	-416.873779296875	139.6223907470703	896.661376953125	-477.3386535644531	191.4592742919922	1057.289672851562	-459.6784973144531	73.20645141601562	714.5706176757812	-416.0686950683594	47.78244400024414	786.410400390625	-437.7723693847656	103.9483261108398	788.6389770507812	-483.2777709960938	163.9821624755859	1667.223388671875	-226.6372528076172	-38.81056976318359	1709.939086914062	-132.4983215332031	-38.46492767333984	1706.64990234375	-232.8160247802734	119.0666275024414	1676.727783203125	-94.16910552978516	166.0498504638672	996.599853515625	25.92220878601074	211.2980804443359	993.0364990234375	-340.5655212402344	109.1619033813477	1035.611572265625	-315.9596862792969	72.54492950439453	1032.883911132812	-38.57176971435547	84.89271545410156	513.3399047851562	-18.53876686096191	104.0523300170898	655.3486938476562	9.55953311920166	144.6756286621094	34.18891525268555	-17.76270484924316	117.1933364868164	284.4186401367188	-10.92530345916748	-59.27925872802734	58.26205062866211	-91.9451904296875	8.009228706359863	40.14514541625977	-127.8627090454102	17.11616706848145	44.73894119262695	-13.98257923126221	211.0953674316406	39.63738250732422	-65.26371765136719	168.3475036621094	502.6433715820312	-308.1375427246094	352.7959289550781	42.29583358764648	-273.9257507324219	183.6405792236328	380.8715209960938	-293.9845886230469	141.0795593261719	42.19091033935547	-252.3675231933594	191.2465362548828	42.8438606262207	-205.3265228271484	248.1652069091797	30.32440757751465	-312.4181213378906	409.0829162597656	55.0986442565918	-209.9900054931641	155.9563903808594	769.9463500976562	-349.3724365234375	
386	3.85	297.8570556640625	1042.054321289062	-227.2999725341797	284.9710693359375	1053.17919921875	-108.3107299804688	289.7763671875	1132.203979492188	-157.0476684570312	29.8892879486084	1302.300415039062	-174.1951141357422	290.7984008789062	1259.284790039062	-167.3514251708984	209.1327362060547	1516.408813476562	-170.9417572021484	50.36965179443359	1420.540649414062	-174.1318054199219	298.0325317382812	1382.8408203125	-240.9902801513672	226.7032775878906	1477.153930664062	-59.35213470458984	136.5558929443359	1473.381469726562	-3.495751619338989	180.2928619384766	1359.694458007812	76.96831512451172	209.9549407958984	1154.049072265625	109.5144195556641	277.6331176757812	1148.968139648438	54.29729843139648	170.2924194335938	901.0138549804688	77.55442047119141	209.0277252197266	898.0547485351562	152.7647552490234	213.8443145751953	1046.254516601562	131.0302124023438	220.6521453857422	712.9583129882812	94.70378875732422	216.2817840576172	808.1220703125	154.5277099609375	167.2488555908203	795.8544921875	108.0394821166992	159.1642608642578	1469.104125976562	-340.4057006835938	185.3068695068359	1405.249145507812	-406.6274108886719	216.1498565673828	1125.987182617188	-446.5425720214844	247.0760498046875	1117.41796875	-356.5083923339844	80.12706756591797	909.3369750976562	-418.5644226074219	139.9878540039062	897.234619140625	-479.3204345703125	192.5746765136719	1057.64697265625	-461.939697265625	73.02265930175781	715.4202880859375	-417.8388061523438	47.8806266784668	787.4380493164062	-439.3345031738281	103.7822494506836	789.3842163085938	-485.1379089355469	166.4184417724609	1667.530151367188	-228.3497314453125	-36.48688888549805	1709.632080078125	-134.0867156982422	-36.15679931640625	1706.301635742188	-234.4221954345703	121.5536041259766	1676.924194335938	-95.85184478759766	169.7658386230469	996.660888671875	23.96059417724609	214.9039764404297	993.49072265625	-342.5614929199219	112.6160125732422	1035.768310546875	-317.91162109375	76.17194366455078	1032.850708007812	-40.48548126220703	86.44241333007812	513.7875366210938	-19.88740348815918	106.4628067016602	655.622314453125	7.952798843383789	144.6820831298828	34.41128158569336	-17.92099761962891	118.0511856079102	284.7479553222656	-11.71688747406006	-58.96524810791016	58.68838119506836	-92.28231048583984	8.180972099304199	40.25506973266602	-128.0659332275391	17.21427917480469	45.07843399047852	-14.21177673339844	211.1961212158203	39.69962692260742	-65.30213928222656	173.3787231445312	502.876220703125	-308.2109069824219	353.1558532714844	41.07082366943359	-272.9752502441406	187.8929901123047	381.0317687988281	-293.870849609375	141.0187225341797	42.17737197875977	-252.2476959228516	191.2796020507812	42.38539123535156	-205.0548858642578	248.2944793701172	30.48564720153809	-312.1939697265625	409.1816101074219	52.71628570556641	-208.5928955078125	160.1316070556641	769.9690551757812	-350.6401977539062	
